<mxfile host="app.diagrams.net" modified="2022-10-07T11:26:19.145Z" agent="5.0 (Macintosh; Intel Mac OS X 10_15_7) AppleWebKit/537.36 (KHTML, like Gecko) Chrome/105.0.0.0 Safari/537.36" etag="4gfYzmfHqtvtp1XnlvdK" version="20.4.0" type="github">
  <diagram id="07fea595-8f29-1299-0266-81d95cde20df" name="Page-1">
    <mxGraphModel dx="1163" dy="735" grid="1" gridSize="10" guides="1" tooltips="1" connect="1" arrows="1" fold="1" page="1" pageScale="1" pageWidth="1169" pageHeight="827" background="#ffffff" math="0" shadow="0">
      <root>
        <mxCell id="0" />
        <mxCell id="1" parent="0" />
        <mxCell id="170" value="&lt;font color=&quot;#23497d&quot;&gt;Main developments&lt;/font&gt;" style="swimlane;whiteSpace=wrap;fillColor=none;swimlaneFillColor=#BAC8D3;fontColor=#2F5B7C;fontFamily=Tahoma;html=1;strokeColor=none;opacity=50;" parent="1" vertex="1">
          <mxGeometry x="504.5" y="89" width="160" height="650" as="geometry">
            <mxRectangle x="20" y="20" width="80" height="23" as="alternateBounds" />
          </mxGeometry>
        </mxCell>
        <mxCell id="171" value="KERI" style="whiteSpace=wrap;shadow=0;fontColor=#FFFFFF;fontFamily=Helvetica;fontStyle=0;html=1;fontSize=12;plain-purple;strokeColor=none;fillColor=#2f5b7c;gradientColor=none;spacing=6;verticalAlign=middle;" parent="170" vertex="1">
          <mxGeometry x="20" y="60" width="120" height="60" as="geometry" />
        </mxCell>
        <mxCell id="172" value="ACDC" style="whiteSpace=wrap;strokeColor=none;fillColor=#2f5b7c;shadow=0;fontColor=#FFFFFF;fontFamily=Helvetica;fontStyle=0;html=1;fontSize=12;spacing=6;verticalAlign=middle;" parent="170" vertex="1">
          <mxGeometry x="20" y="375" width="120" height="60" as="geometry" />
        </mxCell>
        <mxCell id="175" value="" style="edgeStyle=segmentEdgeStyle;strokeColor=#2F5B7C;strokeWidth=3;html=1;endArrow=block;endFill=1;" parent="170" source="171" target="172" edge="1">
          <mxGeometry width="100" height="100" relative="1" as="geometry">
            <mxPoint x="160" y="110" as="sourcePoint" />
            <mxPoint x="260" y="185" as="targetPoint" />
          </mxGeometry>
        </mxCell>
        <mxCell id="183" value="&lt;font color=&quot;#23497d&quot;&gt;Major Components&lt;/font&gt;" style="swimlane;whiteSpace=wrap;fillColor=none;swimlaneFillColor=#BAC8D3;fontColor=#2F5B7C;fontFamily=Tahoma;html=1;strokeColor=none;opacity=25;" parent="1" vertex="1">
          <mxGeometry x="670" y="89" width="160" height="650" as="geometry">
            <mxRectangle x="20" y="20" width="80" height="23" as="alternateBounds" />
          </mxGeometry>
        </mxCell>
        <mxCell id="184" value="Material Requirements Planning Operation" style="whiteSpace=wrap;shadow=0;fontColor=#FFFFFF;fontFamily=Helvetica;fontStyle=0;html=1;fontSize=12;plain-purple;strokeColor=none;fillColor=#2f5b7c;gradientColor=none;spacing=6;verticalAlign=middle;" parent="183" vertex="1">
          <mxGeometry x="20" y="165" width="120" height="60" as="geometry" />
        </mxCell>
        <mxCell id="185" value="&lt;font color=&quot;#ffffff&quot;&gt;Facilities Procurement&lt;br&gt;Application&lt;/font&gt;&lt;br&gt; " style="shape=document;whiteSpace=wrap;verticalAlign=middle;strokeColor=none;fillColor=#12aab5;shadow=0;fontColor=#FFFFFF;fontFamily=Helvetica;fontStyle=0;html=1;fontSize=12;spacing=6;spacingBottom=22;" parent="183" vertex="1">
          <mxGeometry x="20" y="265" width="120" height="80" as="geometry" />
        </mxCell>
        <mxCell id="186" value="" style="edgeStyle=segmentEdgeStyle;strokeColor=#2F5B7C;strokeWidth=3;html=1;endArrow=block;endFill=1;" parent="183" source="184" target="185" edge="1">
          <mxGeometry width="100" height="100" relative="1" as="geometry">
            <mxPoint x="-10" y="100" as="sourcePoint" />
            <mxPoint x="90" y="175" as="targetPoint" />
          </mxGeometry>
        </mxCell>
        <mxCell id="187" value="&lt;font color=&quot;#23497d&quot;&gt;Auxiliary units&lt;/font&gt;" style="swimlane;whiteSpace=wrap;fillColor=none;swimlaneFillColor=#BAC8D3;fontColor=#2F5B7C;fontFamily=Tahoma;html=1;strokeColor=none;opacity=50;" parent="1" vertex="1">
          <mxGeometry x="830" y="89" width="160" height="650" as="geometry">
            <mxRectangle x="20" y="20" width="80" height="23" as="alternateBounds" />
          </mxGeometry>
        </mxCell>
        <mxCell id="188" value="Product Quotations" style="shape=document;whiteSpace=wrap;verticalAlign=middle;strokeColor=none;fillColor=#12aab5;shadow=0;fontColor=#FFFFFF;fontFamily=Helvetica;fontStyle=0;html=1;fontSize=12;spacing=6;spacingBottom=22;" parent="187" vertex="1">
          <mxGeometry x="20" y="50" width="120" height="80" as="geometry" />
        </mxCell>
        <mxCell id="189" value="Orders" style="shape=document;whiteSpace=wrap;verticalAlign=middle;strokeColor=none;fillColor=#12aab5;shadow=0;fontColor=#FFFFFF;fontFamily=Helvetica;fontStyle=0;html=1;fontSize=12;spacing=6;spacingBottom=22;" parent="187" vertex="1">
          <mxGeometry x="20" y="225" width="120" height="80" as="geometry" />
        </mxCell>
        <mxCell id="190" value="Product Delivery Notification" style="shape=document;whiteSpace=wrap;strokeColor=none;fillColor=#12aab5;shadow=0;fontColor=#FFFFFF;fontFamily=Helvetica;fontStyle=0;html=1;fontSize=12;verticalAlign=middle;spacing=6;spacingBottom=22;" parent="187" vertex="1">
          <mxGeometry x="20" y="400" width="120" height="80" as="geometry" />
        </mxCell>
        <mxCell id="191" value="Invoice" style="shape=document;whiteSpace=wrap;verticalAlign=middle;strokeColor=none;fillColor=#12aab5;shadow=0;fontColor=#FFFFFF;fontFamily=Helvetica;fontStyle=0;html=1;fontSize=12;spacing=6;spacingBottom=22;" parent="187" vertex="1">
          <mxGeometry x="20" y="520" width="120" height="80" as="geometry" />
        </mxCell>
        <mxCell id="192" value="" style="edgeStyle=segmentEdgeStyle;strokeColor=#12AAB5;strokeWidth=3;html=1;endArrow=block;endFill=1;" parent="187" source="190" target="191" edge="1">
          <mxGeometry width="100" height="100" relative="1" as="geometry">
            <mxPoint x="-80" y="375" as="sourcePoint" />
            <mxPoint x="60" y="490" as="targetPoint" />
            <Array as="points">
              <mxPoint x="53" y="501" />
              <mxPoint x="53" y="501" />
            </Array>
          </mxGeometry>
        </mxCell>
        <mxCell id="202" value="" style="edgeStyle=segmentEdgeStyle;strokeColor=#2F5B7C;strokeWidth=3;html=1;endArrow=block;endFill=1;" parent="1" source="171" target="184" edge="1">
          <mxGeometry x="600" y="179" width="100" height="100" as="geometry">
            <mxPoint x="660" y="249" as="sourcePoint" />
            <mxPoint x="760" y="149" as="targetPoint" />
          </mxGeometry>
        </mxCell>
        <mxCell id="203" value="" style="edgeStyle=segmentEdgeStyle;strokeColor=#12AAB5;strokeWidth=3;html=1;endArrow=block;endFill=1;" parent="1" source="185" target="172" edge="1">
          <mxGeometry x="600" y="434" width="100" height="100" as="geometry">
            <mxPoint x="710" y="324" as="sourcePoint" />
            <mxPoint x="710" y="364" as="targetPoint" />
            <Array as="points">
              <mxPoint x="670" y="494" />
            </Array>
          </mxGeometry>
        </mxCell>
        <mxCell id="204" value="" style="edgeStyle=segmentEdgeStyle;strokeColor=#2F5B7C;strokeWidth=3;html=1;endArrow=block;endFill=1;" parent="1" source="171" target="188" edge="1">
          <mxGeometry x="600" y="179" width="100" height="100" as="geometry">
            <mxPoint x="610" y="189" as="sourcePoint" />
            <mxPoint x="710" y="264" as="targetPoint" />
          </mxGeometry>
        </mxCell>
        <mxCell id="205" value="" style="edgeStyle=segmentEdgeStyle;strokeColor=#12AAB5;strokeWidth=3;html=1;endArrow=block;endFill=1;" parent="1" source="185" target="190" edge="1">
          <mxGeometry x="670" y="434" width="100" height="100" as="geometry">
            <mxPoint x="820" y="819" as="sourcePoint" />
            <mxPoint x="920" y="719" as="targetPoint" />
            <Array as="points">
              <mxPoint x="670" y="529" />
            </Array>
          </mxGeometry>
        </mxCell>
        <mxCell id="206" value="" style="edgeStyle=elbowEdgeStyle;elbow=vertical;strokeColor=#12AAB5;strokeWidth=3;html=1;endArrow=block;endFill=1;" parent="1" source="191" edge="1">
          <mxGeometry x="760.5" y="623.5" width="100" height="100" as="geometry">
            <mxPoint x="820.5" y="618.5" as="sourcePoint" />
            <mxPoint x="1120.5" y="654" as="targetPoint" />
          </mxGeometry>
        </mxCell>
        <mxCell id="207" value="" style="edgeStyle=segmentEdgeStyle;strokeColor=#2F5B7C;strokeWidth=3;html=1;endArrow=block;endFill=1;" parent="1" source="184" target="189" edge="1">
          <mxGeometry x="760" y="284" width="100" height="100" as="geometry">
            <mxPoint x="890" y="299" as="sourcePoint" />
            <mxPoint x="990" y="199" as="targetPoint" />
            <Array as="points" />
          </mxGeometry>
        </mxCell>
        <mxCell id="209" value="" style="edgeStyle=none;strokeColor=#2F5B7C;strokeWidth=3;html=1;endArrow=block;endFill=1;" parent="1" edge="1">
          <mxGeometry x="920.5" y="278.5" width="100" height="100" as="geometry">
            <mxPoint x="920.5" y="278.5" as="sourcePoint" />
            <mxPoint x="960.5" y="278.5" as="targetPoint" />
          </mxGeometry>
        </mxCell>
        <mxCell id="210" value="" style="edgeStyle=segmentEdgeStyle;strokeColor=#12AAB5;strokeWidth=3;html=1;endArrow=block;endFill=1;" parent="1" source="189" edge="1">
          <mxGeometry x="840" y="394" width="100" height="100" as="geometry">
            <mxPoint x="960" y="489" as="sourcePoint" />
            <mxPoint x="960" y="439" as="targetPoint" />
            <Array as="points">
              <mxPoint x="840" y="439" />
            </Array>
          </mxGeometry>
        </mxCell>
        <mxCell id="212" value="" style="edgeStyle=segmentEdgeStyle;strokeColor=#2F5B7C;strokeWidth=3;html=1;endArrow=block;endFill=1;" parent="1" edge="1">
          <mxGeometry x="644.5" y="433.5" width="100" height="100" as="geometry">
            <mxPoint x="644.5" y="433.5" as="sourcePoint" />
            <mxPoint x="744.5" y="508.5" as="targetPoint" />
          </mxGeometry>
        </mxCell>
        <mxCell id="TnQM13vhQSFfglc_F1q1-217" value="&lt;font color=&quot;#23497d&quot;&gt;Its&lt;/font&gt;" style="swimlane;whiteSpace=wrap;fillColor=none;swimlaneFillColor=#BAC8D3;fontColor=#2F5B7C;fontFamily=Tahoma;html=1;strokeColor=none;opacity=25;" vertex="1" parent="1">
          <mxGeometry x="24" y="89" width="160" height="650" as="geometry">
            <mxRectangle x="20" y="20" width="80" height="23" as="alternateBounds" />
          </mxGeometry>
        </mxCell>
        <mxCell id="TnQM13vhQSFfglc_F1q1-218" value="Material Requirements Planning Operation" style="whiteSpace=wrap;shadow=0;fontColor=#FFFFFF;fontFamily=Helvetica;fontStyle=0;html=1;fontSize=12;plain-purple;strokeColor=none;fillColor=#2f5b7c;gradientColor=none;spacing=6;verticalAlign=middle;" vertex="1" parent="TnQM13vhQSFfglc_F1q1-217">
          <mxGeometry x="20" y="165" width="120" height="60" as="geometry" />
        </mxCell>
        <mxCell id="TnQM13vhQSFfglc_F1q1-219" value="&lt;font color=&quot;#ffffff&quot;&gt;Facilities Procurement&lt;br&gt;Application&lt;/font&gt;&lt;br&gt; " style="shape=document;whiteSpace=wrap;verticalAlign=middle;strokeColor=none;fillColor=#12aab5;shadow=0;fontColor=#FFFFFF;fontFamily=Helvetica;fontStyle=0;html=1;fontSize=12;spacing=6;spacingBottom=22;" vertex="1" parent="TnQM13vhQSFfglc_F1q1-217">
          <mxGeometry x="20" y="265" width="120" height="80" as="geometry" />
        </mxCell>
        <mxCell id="TnQM13vhQSFfglc_F1q1-220" value="" style="edgeStyle=segmentEdgeStyle;strokeColor=#2F5B7C;strokeWidth=3;html=1;endArrow=block;endFill=1;" edge="1" parent="TnQM13vhQSFfglc_F1q1-217" source="TnQM13vhQSFfglc_F1q1-218" target="TnQM13vhQSFfglc_F1q1-219">
          <mxGeometry width="100" height="100" relative="1" as="geometry">
            <mxPoint x="-10" y="100" as="sourcePoint" />
            <mxPoint x="90" y="175" as="targetPoint" />
          </mxGeometry>
        </mxCell>
        <mxCell id="TnQM13vhQSFfglc_F1q1-221" value="&lt;font color=&quot;#23497d&quot;&gt;Permission-less Society&lt;/font&gt;" style="swimlane;whiteSpace=wrap;fillColor=none;swimlaneFillColor=#BAC8D3;fontColor=#2F5B7C;fontFamily=Tahoma;html=1;strokeColor=none;opacity=25;" vertex="1" parent="1">
          <mxGeometry x="344" y="89" width="160" height="650" as="geometry">
            <mxRectangle x="20" y="20" width="80" height="23" as="alternateBounds" />
          </mxGeometry>
        </mxCell>
        <mxCell id="TnQM13vhQSFfglc_F1q1-222" value="Sales Contract" style="shape=document;whiteSpace=wrap;verticalAlign=middle;strokeColor=none;fillColor=#12aab5;shadow=0;fontColor=#FFFFFF;fontFamily=Helvetica;fontStyle=0;html=1;fontSize=12;spacing=6;spacingBottom=22;" vertex="1" parent="TnQM13vhQSFfglc_F1q1-221">
          <mxGeometry x="20" y="50" width="120" height="80" as="geometry" />
        </mxCell>
        <mxCell id="TnQM13vhQSFfglc_F1q1-223" value="Bills" style="shape=document;whiteSpace=wrap;verticalAlign=middle;strokeColor=none;fillColor=#12aab5;shadow=0;fontColor=#FFFFFF;fontFamily=Helvetica;fontStyle=0;html=1;fontSize=12;spacing=6;spacingBottom=22;" vertex="1" parent="TnQM13vhQSFfglc_F1q1-221">
          <mxGeometry x="20" y="530" width="120" height="80" as="geometry" />
        </mxCell>
        <mxCell id="TnQM13vhQSFfglc_F1q1-224" value="Cost Allocation" style="whiteSpace=wrap;strokeColor=none;fillColor=#2f5b7c;shadow=0;fontColor=#FFFFFF;fontFamily=Helvetica;fontStyle=0;html=1;fontSize=12;spacing=6;verticalAlign=middle;" vertex="1" parent="TnQM13vhQSFfglc_F1q1-221">
          <mxGeometry x="20" y="305" width="120" height="60" as="geometry" />
        </mxCell>
        <mxCell id="TnQM13vhQSFfglc_F1q1-225" value="&lt;font color=&quot;#23497d&quot;&gt;Bits&lt;/font&gt;" style="swimlane;whiteSpace=wrap;fillColor=none;swimlaneFillColor=#BAC8D3;fontColor=#2F5B7C;fontFamily=Tahoma;html=1;strokeColor=none;opacity=50;" vertex="1" parent="1">
          <mxGeometry x="184" y="89" width="160" height="650" as="geometry">
            <mxRectangle x="20" y="20" width="80" height="23" as="alternateBounds" />
          </mxGeometry>
        </mxCell>
        <mxCell id="TnQM13vhQSFfglc_F1q1-226" value="Outbound Accounting" style="whiteSpace=wrap;fillColor=#2f5b7c;strokeColor=none;shadow=0;fontColor=#FFFFFF;fontFamily=Helvetica;fontStyle=0;html=1;fontSize=12;spacing=6;verticalAlign=middle;" vertex="1" parent="TnQM13vhQSFfglc_F1q1-225">
          <mxGeometry x="20" y="160" width="120" height="60" as="geometry" />
        </mxCell>
        <mxCell id="TnQM13vhQSFfglc_F1q1-227" value="Account Processing" style="whiteSpace=wrap;strokeColor=none;fillColor=#2f5b7c;shadow=0;fontColor=#FFFFFF;fontFamily=Helvetica;fontStyle=0;html=1;fontSize=12;spacing=6;verticalAlign=middle;" vertex="1" parent="TnQM13vhQSFfglc_F1q1-225">
          <mxGeometry x="20" y="420" width="120" height="60" as="geometry" />
        </mxCell>
        <mxCell id="TnQM13vhQSFfglc_F1q1-228" value="" style="edgeStyle=segmentEdgeStyle;strokeColor=#2F5B7C;strokeWidth=3;html=1;endArrow=block;endFill=1;" edge="1" parent="1" source="TnQM13vhQSFfglc_F1q1-226" target="TnQM13vhQSFfglc_F1q1-222">
          <mxGeometry x="264" y="179" width="100" height="100" as="geometry">
            <mxPoint x="384" y="379" as="sourcePoint" />
            <mxPoint x="484" y="279" as="targetPoint" />
            <Array as="points">
              <mxPoint x="264" y="179" />
            </Array>
          </mxGeometry>
        </mxCell>
        <mxCell id="TnQM13vhQSFfglc_F1q1-229" value="" style="edgeStyle=segmentEdgeStyle;strokeColor=#2F5B7C;strokeWidth=3;html=1;endArrow=block;endFill=1;" edge="1" parent="1" source="TnQM13vhQSFfglc_F1q1-226" target="TnQM13vhQSFfglc_F1q1-224">
          <mxGeometry x="324" y="279" width="100" height="100" as="geometry">
            <mxPoint x="374" y="389" as="sourcePoint" />
            <mxPoint x="474" y="289" as="targetPoint" />
          </mxGeometry>
        </mxCell>
        <mxCell id="TnQM13vhQSFfglc_F1q1-230" value="" style="edgeStyle=segmentEdgeStyle;strokeColor=#2F5B7C;strokeWidth=3;html=1;endArrow=block;endFill=1;" edge="1" parent="1" source="TnQM13vhQSFfglc_F1q1-227" target="TnQM13vhQSFfglc_F1q1-223">
          <mxGeometry x="324" y="539" width="100" height="100" as="geometry">
            <mxPoint x="404" y="579" as="sourcePoint" />
            <mxPoint x="504" y="479" as="targetPoint" />
          </mxGeometry>
        </mxCell>
        <mxCell id="TnQM13vhQSFfglc_F1q1-231" value="" style="edgeStyle=segmentEdgeStyle;strokeColor=#2F5B7C;strokeWidth=3;html=1;endArrow=block;endFill=1;" edge="1" parent="1" source="TnQM13vhQSFfglc_F1q1-224">
          <mxGeometry x="484" y="424" width="100" height="100" as="geometry">
            <mxPoint x="614" y="499" as="sourcePoint" />
            <mxPoint x="584" y="489" as="targetPoint" />
          </mxGeometry>
        </mxCell>
        <mxCell id="TnQM13vhQSFfglc_F1q1-232" value="" style="edgeStyle=segmentEdgeStyle;strokeColor=#12AAB5;strokeWidth=3;html=1;endArrow=block;endFill=1;" edge="1" parent="1" source="TnQM13vhQSFfglc_F1q1-222">
          <mxGeometry x="484" y="179" width="100" height="100" as="geometry">
            <mxPoint x="374" y="349" as="sourcePoint" />
            <mxPoint x="584" y="219" as="targetPoint" />
          </mxGeometry>
        </mxCell>
      </root>
    </mxGraphModel>
  </diagram>
</mxfile>
